REM MD5 62bb8f6a1d25dd41cbeb2102ad0c6f35
FILE "Pizza Hut Disc 2 (USA).bin" BINARY
  TRACK 01 MODE2/2352
    INDEX 01 00:00:00
  TRACK 02 AUDIO
    INDEX 00 20:07:55
    INDEX 01 20:11:55
  TRACK 03 AUDIO
    INDEX 00 24:52:73
    INDEX 01 24:56:73
REM LEADOUT 25:02:69
